<svg xmlns="http://www.w3.org/2000/svg" version="1.1" xmlns:xlink="http://www.w3.org/1999/xlink" xmlns:svgjs="http://svgjs.dev/svgjs" width="1500" height="1500" viewBox="0 0 1500 1500"><rect width="1500" height="1500" fill="#ffffff"></rect><g transform="matrix(0.6666666666666666,0,0,0.6666666666666666,250.23400865597966,189.12118758434553)"><svg viewBox="0 0 220 247" data-background-color="#ffffff" preserveAspectRatio="xMidYMid meet" height="1684" width="1500" xmlns="http://www.w3.org/2000/svg" xmlns:xlink="http://www.w3.org/1999/xlink"><g id="tight-bounds" transform="matrix(1,0,0,1,-0.0514819043155228,-0.09999999999999432)"><svg viewBox="0 0 220.10296380863105 247.2" height="247.2" width="220.10296380863105"><g><svg viewBox="0 0 220.10296380863105 247.2" height="247.2" width="220.10296380863105"><g><svg viewBox="0 0 397.49759999999986 446.43381906221646" height="247.2" width="220.10296380863105"><g><rect width="397.49759999999986" height="10.894246676826786" x="0" y="210.06031914419955" fill="#111111" opacity="1" stroke-width="0" stroke="transparent" fill-opacity="1" class="rect-qz-0" data-fill-palette-color="primary" rx="1%" id="qz-0" data-palette-color="#111111"></rect></g><g transform="matrix(1,0,0,1,0.9887999999999693,249.47353617921164)"><svg viewBox="0 0 395.5199999999999 196.96028288300482" height="196.96028288300482" width="395.5199999999999"><g id="textblocktransform"><svg viewBox="0 0 395.5199999999999 196.96028288300482" height="196.96028288300482" width="395.5199999999999" id="textblock"><g><svg viewBox="0 0 395.5199999999999 120.80419169329073" height="120.80419169329073" width="395.5199999999999"><g transform="matrix(1,0,0,1,0,0)"><svg width="395.5199999999999" viewBox="1.25 -40.55 156.48 47.8" height="120.80419169329073" data-palette-color="#111111"><g class="wordmark-text-0" data-fill-palette-color="primary" id="text-0"><path d="M9.4 0.4L9.4 0.4Q5.85 0.4 3.7-1.83 1.55-4.05 1.25-7.7L1.25-7.7 5.7-9.05Q6.1-6.3 7.05-4.93 8-3.55 9.85-3.55L9.85-3.55Q11.3-3.55 12.05-4.38 12.8-5.2 12.8-6.6L12.8-6.6Q12.8-7.85 12.25-8.85 11.7-9.85 10.45-10.9L10.45-10.9 5.5-15.15Q4-16.45 2.98-18.05 1.95-19.65 1.95-22.2L1.95-22.2Q1.95-24.5 2.88-26.08 3.8-27.65 5.48-28.48 7.15-29.3 9.4-29.3L9.4-29.3Q12.85-29.3 14.68-27.08 16.5-24.85 16.75-21.7L16.75-21.7 13.15-20.35Q12.95-21.85 12.55-22.98 12.15-24.1 11.45-24.73 10.75-25.35 9.6-25.35L9.6-25.35Q8.3-25.35 7.53-24.48 6.75-23.6 6.75-22.4L6.75-22.4Q6.75-21.65 7.08-20.93 7.4-20.2 8.2-19.5L8.2-19.5 13.3-14.8Q14.35-13.85 15.28-12.75 16.2-11.65 16.8-10.25 17.4-8.85 17.4-7L17.4-7Q17.4-4.55 16.4-2.9 15.4-1.25 13.6-0.43 11.8 0.4 9.4 0.4ZM29.4 0.4L29.4 0.4Q26 0.4 24.15-0.93 22.3-2.25 21.57-4.83 20.85-7.4 20.85-11.15L20.85-11.15 20.85-17.75Q20.85-21.6 21.6-24.15 22.35-26.7 24.22-28 26.1-29.3 29.4-29.3L29.4-29.3Q33.05-29.3 34.77-27.8 36.5-26.3 37.05-23.48 37.6-20.65 37.6-16.7L37.6-16.7 37.6-14.35 26.2-14.35 26.2-8.55Q26.2-6.8 26.52-5.7 26.85-4.6 27.57-4.08 28.3-3.55 29.45-3.55L29.45-3.55Q30.65-3.55 31.27-4.13 31.9-4.7 32.12-5.78 32.35-6.85 32.35-8.3L32.35-8.3 32.35-10.05 37.55-10.05 37.55-8.95Q37.55-4.6 35.7-2.1 33.85 0.4 29.4 0.4ZM26.2-18.8L26.2-17.25 32.35-17.25 32.35-19.85Q32.35-21.65 32.15-22.88 31.95-24.1 31.32-24.73 30.7-25.35 29.35-25.35L29.35-25.35Q28.05-25.35 27.37-24.75 26.7-24.15 26.45-22.73 26.2-21.3 26.2-18.8L26.2-18.8ZM48.15 0L42.8 0 42.8-28.9 48.15-28.9 48.15 0ZM48.15-33.2L42.8-33.2 42.8-38.8 48.15-38.8 48.15-33.2ZM59.74 0L54.39 0 54.39-40.5 59.74-40.5 59.74 0ZM65.54 7.25L64.89 7.25 64.89 3.15Q66.84 3.15 67.99 2.98 69.14 2.8 69.64 2.33 70.14 1.85 70.14 1L70.14 1Q70.14 0.55 69.79-1 69.44-2.55 69.04-4.3L69.04-4.3 63.24-28.9 68.64-28.9 72.54-7.3 76.29-28.9 81.69-28.9 74.79 1.6Q74.34 3.7 73.14 4.93 71.94 6.15 70.07 6.7 68.19 7.25 65.54 7.25L65.54 7.25ZM90.79 0L85.44 0 85.44-40.5 90.79-40.5 90.79 0ZM104.34 0.4L104.34 0.4Q101.14 0.4 99.29-0.9 97.44-2.2 96.66-4.6 95.89-7 95.89-10.25L95.89-10.25 95.89-18.65Q95.89-21.9 96.66-24.3 97.44-26.7 99.29-28 101.14-29.3 104.34-29.3L104.34-29.3Q107.54-29.3 109.36-28 111.19-26.7 111.96-24.3 112.74-21.9 112.74-18.65L112.74-18.65 112.74-10.25Q112.74-7 111.96-4.6 111.19-2.2 109.36-0.9 107.54 0.4 104.34 0.4ZM104.34-3.55L104.34-3.55Q105.89-3.55 106.51-4.45 107.14-5.35 107.26-6.83 107.39-8.3 107.39-9.9L107.39-9.9 107.39-18.95Q107.39-20.6 107.26-22.05 107.14-23.5 106.51-24.43 105.89-25.35 104.34-25.35L104.34-25.35Q102.79-25.35 102.14-24.43 101.49-23.5 101.36-22.05 101.24-20.6 101.24-18.95L101.24-18.95 101.24-9.9Q101.24-8.3 101.36-6.83 101.49-5.35 102.14-4.45 102.79-3.55 104.34-3.55ZM125.58 0.4L125.58 0.4Q122.38 0.4 120.53-0.9 118.68-2.2 117.91-4.6 117.13-7 117.13-10.25L117.13-10.25 117.13-18.65Q117.13-21.9 117.91-24.3 118.68-26.7 120.53-28 122.38-29.3 125.58-29.3L125.58-29.3Q128.78-29.3 130.61-28 132.43-26.7 133.21-24.3 133.98-21.9 133.98-18.65L133.98-18.65 133.98-10.25Q133.98-7 133.21-4.6 132.43-2.2 130.61-0.9 128.78 0.4 125.58 0.4ZM125.58-3.55L125.58-3.55Q127.13-3.55 127.76-4.45 128.38-5.35 128.51-6.83 128.63-8.3 128.63-9.9L128.63-9.9 128.63-18.95Q128.63-20.6 128.51-22.05 128.38-23.5 127.76-24.43 127.13-25.35 125.58-25.35L125.58-25.35Q124.03-25.35 123.38-24.43 122.73-23.5 122.61-22.05 122.48-20.6 122.48-18.95L122.48-18.95 122.48-9.9Q122.48-8.3 122.61-6.83 122.73-5.35 123.38-4.45 124.03-3.55 125.58-3.55ZM144.33-0.05L138.98-0.05 138.98-40.55 144.33-40.55 144.33-16.4 152.13-28.9 157.73-28.9 150.93-17.6 157.53 0 152.18 0 146.78-14.8 144.33-11.1 144.33-0.05Z" fill="#111111" data-fill-palette-color="primary"></path></g></svg></g></svg></g><g transform="matrix(1,0,0,1,75.54431999999998,149.32316205147603)"><svg viewBox="0 0 244.43135999999996 47.63712083152878" height="47.63712083152878" width="244.43135999999996"><g transform="matrix(1,0,0,1,0,0)"><svg width="244.43135999999996" viewBox="4.35 -35.5 230.88 45" height="47.63712083152878" data-palette-color="#ff0000"><path d="M17.1 0L5.5 0Q4.95 0 4.65-0.33 4.35-0.65 4.35-1.15L4.35-1.15 4.35-33.8Q4.35-34.35 4.65-34.68 4.95-35 5.5-35L5.5-35 16.85-35Q22-35 25.15-33.45 28.3-31.9 29.75-28.88 31.2-25.85 31.25-21.45L31.25-21.45Q31.3-19.2 31.3-17.5 31.3-15.8 31.25-13.6L31.25-13.6Q31.15-9 29.73-5.98 28.3-2.95 25.23-1.48 22.15 0 17.1 0L17.1 0ZM9.25-30.75L9.25-4.25 16.85-4.25Q20.3-4.25 22.35-5.2 24.4-6.15 25.33-8.25 26.25-10.35 26.3-13.8L26.3-13.8Q26.4-15.3 26.4-16.43 26.4-17.55 26.4-18.68 26.4-19.8 26.3-21.25L26.3-21.25Q26.2-26.1 24-28.43 21.8-30.75 16.6-30.75L16.6-30.75 9.25-30.75ZM48.55 0.5L48.55 0.5Q43.35 0.5 40.3-2.68 37.25-5.85 36.95-11.35L36.95-11.35Q36.9-12 36.9-13.03 36.9-14.05 36.95-14.7L36.95-14.7Q37.15-18.25 38.6-20.93 40.05-23.6 42.57-25.05 45.1-26.5 48.5-26.5L48.5-26.5Q52.3-26.5 54.87-24.9 57.45-23.3 58.8-20.35 60.15-17.4 60.15-13.45L60.15-13.45 60.15-12.6Q60.15-12.05 59.82-11.75 59.5-11.45 59-11.45L59-11.45 41.7-11.45Q41.7-11.4 41.7-11.25 41.7-11.1 41.7-11L41.7-11Q41.8-8.95 42.6-7.18 43.4-5.4 44.92-4.3 46.45-3.2 48.5-3.2L48.5-3.2Q50.3-3.2 51.5-3.75 52.7-4.3 53.45-4.98 54.2-5.65 54.45-6.05L54.45-6.05Q54.9-6.65 55.15-6.78 55.4-6.9 55.95-6.9L55.95-6.9 58.4-6.9Q58.85-6.9 59.17-6.63 59.5-6.35 59.45-5.85L59.45-5.85Q59.4-5.1 58.65-4.03 57.9-2.95 56.52-1.9 55.15-0.85 53.12-0.18 51.1 0.5 48.55 0.5ZM41.7-15.05L41.7-14.9 55.4-14.9 55.4-15.05Q55.4-17.3 54.57-19.05 53.75-20.8 52.2-21.83 50.65-22.85 48.5-22.85L48.5-22.85Q46.35-22.85 44.82-21.83 43.3-20.8 42.5-19.05 41.7-17.3 41.7-15.05L41.7-15.05ZM77.35 0L75.2 0Q74.45 0 74.02-0.35 73.6-0.7 73.35-1.25L73.35-1.25 64.1-24.45Q64-24.7 64-24.95L64-24.95Q64-25.4 64.3-25.7 64.6-26 65.05-26L65.05-26 67.45-26Q68-26 68.3-25.7 68.6-25.4 68.7-25.15L68.7-25.15 76.3-5.45 83.9-25.15Q84-25.4 84.27-25.7 84.55-26 85.1-26L85.1-26 87.55-26Q87.95-26 88.27-25.7 88.6-25.4 88.6-24.95L88.6-24.95Q88.6-24.7 88.5-24.45L88.5-24.45 79.2-1.25Q79-0.7 78.57-0.35 78.15 0 77.35 0L77.35 0ZM104.24 0.5L104.24 0.5Q99.04 0.5 95.99-2.68 92.94-5.85 92.64-11.35L92.64-11.35Q92.59-12 92.59-13.03 92.59-14.05 92.64-14.7L92.64-14.7Q92.84-18.25 94.29-20.93 95.74-23.6 98.27-25.05 100.79-26.5 104.19-26.5L104.19-26.5Q107.99-26.5 110.57-24.9 113.14-23.3 114.49-20.35 115.84-17.4 115.84-13.45L115.84-13.45 115.84-12.6Q115.84-12.05 115.52-11.75 115.19-11.45 114.69-11.45L114.69-11.45 97.39-11.45Q97.39-11.4 97.39-11.25 97.39-11.1 97.39-11L97.39-11Q97.49-8.95 98.29-7.18 99.09-5.4 100.62-4.3 102.14-3.2 104.19-3.2L104.19-3.2Q105.99-3.2 107.19-3.75 108.39-4.3 109.14-4.98 109.89-5.65 110.14-6.05L110.14-6.05Q110.59-6.65 110.84-6.78 111.09-6.9 111.64-6.9L111.64-6.9 114.09-6.9Q114.54-6.9 114.87-6.63 115.19-6.35 115.14-5.85L115.14-5.85Q115.09-5.1 114.34-4.03 113.59-2.95 112.22-1.9 110.84-0.85 108.82-0.18 106.79 0.5 104.24 0.5ZM97.39-15.05L97.39-14.9 111.09-14.9 111.09-15.05Q111.09-17.3 110.27-19.05 109.44-20.8 107.89-21.83 106.34-22.85 104.19-22.85L104.19-22.85Q102.04-22.85 100.52-21.83 98.99-20.8 98.19-19.05 97.39-17.3 97.39-15.05L97.39-15.05ZM125.39 0L123.04 0Q122.54 0 122.22-0.33 121.89-0.65 121.89-1.15L121.89-1.15 121.89-34.35Q121.89-34.85 122.22-35.18 122.54-35.5 123.04-35.5L123.04-35.5 125.39-35.5Q125.94-35.5 126.24-35.18 126.54-34.85 126.54-34.35L126.54-34.35 126.54-1.15Q126.54-0.65 126.24-0.33 125.94 0 125.39 0L125.39 0ZM144.64 0.5L144.64 0.5Q140.84 0.5 138.29-0.95 135.74-2.4 134.39-4.98 133.04-7.55 132.89-10.85L132.89-10.85Q132.84-11.7 132.84-13.03 132.84-14.35 132.89-15.15L132.89-15.15Q133.04-18.5 134.41-21.05 135.79-23.6 138.34-25.05 140.89-26.5 144.64-26.5L144.64-26.5Q148.39-26.5 150.94-25.05 153.49-23.6 154.86-21.05 156.24-18.5 156.39-15.15L156.39-15.15Q156.44-14.35 156.44-13.03 156.44-11.7 156.39-10.85L156.39-10.85Q156.24-7.55 154.89-4.98 153.54-2.4 150.99-0.95 148.44 0.5 144.64 0.5ZM144.64-3.35L144.64-3.35Q147.74-3.35 149.59-5.33 151.44-7.3 151.59-11.1L151.59-11.1Q151.64-11.85 151.64-13 151.64-14.15 151.59-14.9L151.59-14.9Q151.44-18.7 149.59-20.68 147.74-22.65 144.64-22.65L144.64-22.65Q141.54-22.65 139.66-20.68 137.79-18.7 137.69-14.9L137.69-14.9Q137.64-14.15 137.64-13 137.64-11.85 137.69-11.1L137.69-11.1Q137.79-7.3 139.66-5.33 141.54-3.35 144.64-3.35ZM166.34 9.5L163.89 9.5Q163.39 9.5 163.06 9.18 162.74 8.85 162.74 8.35L162.74 8.35 162.74-24.85Q162.74-25.35 163.06-25.68 163.39-26 163.89-26L163.89-26 166.19-26Q166.69-26 167.01-25.68 167.34-25.35 167.34-24.85L167.34-24.85 167.34-22.65Q168.54-24.3 170.54-25.4 172.54-26.5 175.54-26.5L175.54-26.5Q178.34-26.5 180.31-25.55 182.29-24.6 183.56-22.95 184.84-21.3 185.49-19.2 186.14-17.1 186.24-14.7L186.24-14.7Q186.29-13.9 186.29-13 186.29-12.1 186.24-11.3L186.24-11.3Q186.14-8.95 185.49-6.83 184.84-4.7 183.56-3.08 182.29-1.45 180.31-0.48 178.34 0.5 175.54 0.5L175.54 0.5Q172.64 0.5 170.66-0.58 168.69-1.65 167.44-3.25L167.44-3.25 167.44 8.35Q167.44 8.85 167.14 9.18 166.84 9.5 166.34 9.5L166.34 9.5ZM174.49-3.55L174.49-3.55Q177.09-3.55 178.56-4.67 180.04-5.8 180.69-7.63 181.34-9.45 181.44-11.55L181.44-11.55Q181.49-13 181.44-14.45L181.44-14.45Q181.34-16.55 180.69-18.38 180.04-20.2 178.56-21.33 177.09-22.45 174.49-22.45L174.49-22.45Q172.04-22.45 170.51-21.3 168.99-20.15 168.26-18.38 167.54-16.6 167.44-14.75L167.44-14.75Q167.39-13.95 167.39-12.85 167.39-11.75 167.44-10.9L167.44-10.9Q167.49-9.15 168.26-7.45 169.04-5.75 170.59-4.65 172.14-3.55 174.49-3.55ZM202.88 0.5L202.88 0.5Q197.68 0.5 194.63-2.68 191.58-5.85 191.28-11.35L191.28-11.35Q191.23-12 191.23-13.03 191.23-14.05 191.28-14.7L191.28-14.7Q191.48-18.25 192.93-20.93 194.38-23.6 196.91-25.05 199.43-26.5 202.83-26.5L202.83-26.5Q206.63-26.5 209.21-24.9 211.78-23.3 213.13-20.35 214.48-17.4 214.48-13.45L214.48-13.45 214.48-12.6Q214.48-12.05 214.16-11.75 213.83-11.45 213.33-11.45L213.33-11.45 196.03-11.45Q196.03-11.4 196.03-11.25 196.03-11.1 196.03-11L196.03-11Q196.13-8.95 196.93-7.18 197.73-5.4 199.26-4.3 200.78-3.2 202.83-3.2L202.83-3.2Q204.63-3.2 205.83-3.75 207.03-4.3 207.78-4.98 208.53-5.65 208.78-6.05L208.78-6.05Q209.23-6.65 209.48-6.78 209.73-6.9 210.28-6.9L210.28-6.9 212.73-6.9Q213.18-6.9 213.51-6.63 213.83-6.35 213.78-5.85L213.78-5.85Q213.73-5.1 212.98-4.03 212.23-2.95 210.86-1.9 209.48-0.85 207.46-0.18 205.43 0.5 202.88 0.5ZM196.03-15.05L196.03-14.9 209.73-14.9 209.73-15.05Q209.73-17.3 208.91-19.05 208.08-20.8 206.53-21.83 204.98-22.85 202.83-22.85L202.83-22.85Q200.68-22.85 199.16-21.83 197.63-20.8 196.83-19.05 196.03-17.3 196.03-15.05L196.03-15.05ZM224.08 0L221.63 0Q221.13 0 220.81-0.33 220.48-0.65 220.48-1.15L220.48-1.15 220.48-24.8Q220.48-25.3 220.81-25.65 221.13-26 221.63-26L221.63-26 223.93-26Q224.43-26 224.78-25.65 225.13-25.3 225.13-24.8L225.13-24.8 225.13-22.6Q226.13-24.3 227.88-25.15 229.63-26 232.13-26L232.13-26 234.08-26Q234.58-26 234.91-25.68 235.23-25.35 235.23-24.85L235.23-24.85 235.23-22.8Q235.23-22.3 234.91-22 234.58-21.7 234.08-21.7L234.08-21.7 231.08-21.7Q228.38-21.7 226.83-20.13 225.28-18.55 225.28-15.85L225.28-15.85 225.28-1.15Q225.28-0.65 224.93-0.33 224.58 0 224.08 0L224.08 0Z" opacity="1" transform="matrix(1,0,0,1,0,0)" fill="#ff0000" class="slogan-text-1" data-fill-palette-color="secondary" id="text-1"></path></svg></g></svg></g></svg></g></svg></g><g transform="matrix(1,0,0,1,76.53311999999995,0)"><svg viewBox="0 0 244.43135999999996 181.54134878601425" height="181.54134878601425" width="244.43135999999996"><g><svg xmlns="http://www.w3.org/2000/svg" xmlns:xlink="http://www.w3.org/1999/xlink" version="1.1" x="0" y="0" viewBox="7.5 18.435 85.001 63.131" enable-background="new 0 0 100 100" xml:space="preserve" height="181.54134878601425" width="244.43135999999996" class="icon-icon-0" data-fill-palette-color="accent" id="icon-0"><g fill="#ff0000" data-fill-palette-color="accent"><path d="M89.405 18.435H10.595c-1.706 0-3.095 1.389-3.095 3.095v56.941c0 1.706 1.389 3.095 3.095 3.095h78.811c1.707 0 3.095-1.389 3.095-3.095V77.14 32.027 21.529C92.5 19.823 91.112 18.435 89.405 18.435zM10.595 19.673h78.811c1.023 0 1.857 0.833 1.857 1.856v9.075c-0.068-0.01-0.136-0.021-0.207-0.021H8.951c-0.073 0-0.143 0.011-0.213 0.021v-9.076C8.738 20.506 9.571 19.673 10.595 19.673zM91.263 77.14c0 0.114-0.093 0.206-0.207 0.206H8.951c-0.113 0-0.206-0.092-0.206-0.206V32.027c0-0.113 0.093-0.206 0.206-0.206h82.104c0.114 0 0.207 0.093 0.207 0.206V77.14zM89.405 80.327H10.595c-0.992 0-1.798-0.784-1.848-1.764 0.067 0.01 0.135 0.021 0.204 0.021h82.104c0.068 0 0.133-0.011 0.197-0.02C91.202 79.544 90.396 80.327 89.405 80.327z" fill="#ff0000" data-fill-palette-color="accent"></path><path d="M28.178 27.787c1.45 0 2.63-1.18 2.63-2.63 0-1.451-1.18-2.631-2.63-2.631s-2.631 1.18-2.631 2.631C25.547 26.607 26.728 27.787 28.178 27.787zM28.178 23.765c0.768 0 1.393 0.624 1.393 1.393 0 0.768-0.625 1.393-1.393 1.393-0.769 0-1.393-0.625-1.393-1.393C26.785 24.389 27.409 23.765 28.178 23.765z" fill="#ff0000" data-fill-palette-color="accent"></path><path d="M21.458 27.787c1.451 0 2.631-1.18 2.631-2.63 0-1.451-1.18-2.631-2.631-2.631-1.45 0-2.63 1.18-2.63 2.631C18.828 26.607 20.008 27.787 21.458 27.787zM21.458 23.765c0.769 0 1.393 0.624 1.393 1.393 0 0.768-0.624 1.393-1.393 1.393-0.768 0-1.393-0.625-1.393-1.393C20.065 24.389 20.69 23.765 21.458 23.765z" fill="#ff0000" data-fill-palette-color="accent"></path><path d="M14.738 27.787c1.451 0 2.631-1.18 2.631-2.63 0-1.451-1.18-2.631-2.631-2.631-1.45 0-2.63 1.18-2.63 2.631C12.108 26.607 13.288 27.787 14.738 27.787zM14.738 23.765c0.769 0 1.393 0.624 1.393 1.393 0 0.768-0.624 1.393-1.393 1.393-0.768 0-1.393-0.625-1.393-1.393C13.346 24.389 13.971 23.765 14.738 23.765z" fill="#ff0000" data-fill-palette-color="accent"></path></g><path d="M26.598 65.915c-0.624 0-1.395-0.429-2.289-1.276-1.605-1.519-2.16-2.371-1.2-3.405l8.79-8.811-8.774-8.782c-0.676-0.676-0.57-1.195-0.401-1.57 0.242-0.544 0.814-1.117 1.479-1.781 0.829-0.829 1.542-1.542 2.241-1.542 0.342 0 0.679 0.172 1.033 0.526l11.769 11.755c0.311 0.254 0.521 0.659 0.564 1.134 0.048 0.537-0.134 1.152-0.452 1.533L27.53 65.514C27.243 65.787 26.941 65.915 26.598 65.915zM23.846 42.57c-0.009 0 0.027 0.068 0.154 0.194l9.211 9.221c0.241 0.242 0.241 0.633 0 0.875L24 62.093c-0.093 0.1-0.125 0.147-0.133 0.166 0.012 0.047 0.125 0.377 1.292 1.48 0.979 0.927 1.42 0.938 1.438 0.938v0.619l0.01-0.62c-0.001 0.001-0.001 0.001-0.001 0.001-0.003 0 0.02-0.012 0.061-0.05l11.777-11.767c0.061-0.077 0.151-0.357 0.131-0.589-0.013-0.145-0.063-0.246-0.162-0.328L26.601 40.148c-0.144-0.143-0.215-0.171-0.215-0.171-0.182 0.06-0.886 0.764-1.307 1.184-0.531 0.532-1.077 1.078-1.227 1.413C23.85 42.571 23.848 42.57 23.846 42.57z" fill="#ff0000" data-fill-palette-color="accent"></path><path d="M55.834 71.436H40.498c-1.594 0-1.92-1.234-1.92-3.088s0.326-3.088 1.92-3.088h15.336c1.503 0 1.787 1.085 1.787 3.088C57.621 70.396 57.346 71.436 55.834 71.436zM40.498 66.497c-0.366 0-0.683 0-0.683 1.851s0.316 1.851 0.683 1.851h15.336c0.354 0 0.55 0 0.55-1.851s-0.219-1.851-0.55-1.851H40.498z" fill="#ff0000" data-fill-palette-color="accent"></path></svg></g></svg></g><g></g></svg></g></svg></g><defs></defs></svg><rect width="220.10296380863105" height="247.2" fill="none" stroke="none" visibility="hidden"></rect></g></svg></g></svg>